<svg width="139" height="168" viewBox="0 0 139 168" fill="none" xmlns="http://www.w3.org/2000/svg">
<path d="M39.8347 14.7969L-14.148 29.7718C-33.8201 35.2294 -46.6996 39.7888 -41.5986 59.5018L-23.1083 139.553C-18.0073 159.266 -3.87202 153.612 15.8001 148.154L69.7828 133.178C89.4549 127.72 101.893 124.19 96.7924 104.477L75.2976 27.3094C70.1966 7.59641 59.5068 9.33923 39.8347 14.7969Z" fill="url(#paint0_linear_740_12840)"/>
<g opacity="0.5" filter="url(#filter0_f_740_12840)">
<path d="M36.2077 43.1216L0.530908 53.02C-12.4702 56.6272 -18.0186 65.6962 -14.8102 78.0958L-6.01443 112.089C-2.80605 124.489 6.37793 129.471 19.3791 125.863L55.0559 115.965C68.057 112.358 73.5714 103.298 70.3631 90.8986L61.5672 56.9051C58.3589 44.5055 49.2088 39.5145 36.2077 43.1216Z" fill="#494949"/>
</g>
<g filter="url(#filter1_b_740_12840)">
<mask id="path-3-outside-1_740_12840" maskUnits="userSpaceOnUse" x="-2.91357" y="42.6914" width="142" height="136" fill="black">
<rect fill="white" x="-2.91357" y="42.6914" width="142" height="136"/>
<path fill-rule="evenodd" clip-rule="evenodd" d="M-0.837258 84.8526C-0.858656 85.8914 -0.8755 86.7092 -0.887899 87.2275H136.974C136.962 86.7045 136.945 85.8767 136.923 84.8247C136.775 77.5883 136.408 59.7438 135.794 57.5104C132.731 45.1649 123.059 45.071 109.894 44.9433C107.439 44.9195 104.863 44.8945 102.185 44.7886L68.047 44.7887L33.9088 44.789C31.7826 44.7891 29.7514 44.7623 27.8158 44.7368C12.7849 44.5387 3.51933 44.4165 0.300504 57.5109C-0.321372 59.8079 -0.688835 77.6471 -0.837258 84.8526ZM-0.913574 87.2288V157.413C-0.913574 177.075 11.1387 176.898 30.6346 176.61C33.098 176.574 35.6801 176.536 38.3718 176.536H97.6406C100.073 176.536 102.414 176.563 104.657 176.588C124.751 176.815 137.002 176.954 137.002 157.164V87.2288H-0.913574ZM30.5746 117.743C30.726 120.96 33.6026 123.49 37.0847 123.343C40.4912 123.21 43.2164 120.547 43.065 117.316C42.9893 114.169 40.1884 111.709 36.7819 111.709C33.2998 111.856 30.5746 114.52 30.5746 117.743ZM61.6858 117.743C61.8372 120.96 64.7138 123.49 68.196 123.343C71.6024 123.21 74.3276 120.547 74.1762 117.316C74.1005 114.169 71.2996 111.709 67.8932 111.709C64.411 111.856 61.6858 114.52 61.6858 117.743ZM92.7964 143.177C92.7964 146.401 95.5973 149.064 99.0794 149.134C102.637 149.134 105.514 146.471 105.514 143.177C105.514 139.89 102.637 137.227 99.0794 137.227H99.0037C95.5216 137.297 92.7207 139.953 92.7964 143.177ZM68.196 148.782C64.7138 148.929 61.8372 146.399 61.6858 143.175C61.6858 139.952 64.411 137.295 67.8932 137.148C71.2996 137.148 74.1005 139.608 74.1762 142.762C74.3276 145.986 71.6024 148.649 68.196 148.782ZM37.0095 148.782C33.5273 148.929 30.6508 146.399 30.4994 143.175C30.4994 139.952 33.2245 137.295 36.7067 137.148C40.1132 137.148 42.914 139.608 42.9897 142.762C43.1411 145.986 40.416 148.649 37.0095 148.782ZM99.0789 111.785C95.5968 111.855 92.8716 114.448 92.8716 117.672V117.742C92.9473 120.959 95.8239 123.412 99.306 123.342C102.712 123.279 105.438 120.616 105.362 117.392C105.211 114.301 102.485 111.785 99.0789 111.785Z"/>
</mask>
<path fill-rule="evenodd" clip-rule="evenodd" d="M-0.837258 84.8526C-0.858656 85.8914 -0.8755 86.7092 -0.887899 87.2275H136.974C136.962 86.7045 136.945 85.8767 136.923 84.8247C136.775 77.5883 136.408 59.7438 135.794 57.5104C132.731 45.1649 123.059 45.071 109.894 44.9433C107.439 44.9195 104.863 44.8945 102.185 44.7886L68.047 44.7887L33.9088 44.789C31.7826 44.7891 29.7514 44.7623 27.8158 44.7368C12.7849 44.5387 3.51933 44.4165 0.300504 57.5109C-0.321372 59.8079 -0.688835 77.6471 -0.837258 84.8526ZM-0.913574 87.2288V157.413C-0.913574 177.075 11.1387 176.898 30.6346 176.61C33.098 176.574 35.6801 176.536 38.3718 176.536H97.6406C100.073 176.536 102.414 176.563 104.657 176.588C124.751 176.815 137.002 176.954 137.002 157.164V87.2288H-0.913574ZM30.5746 117.743C30.726 120.96 33.6026 123.49 37.0847 123.343C40.4912 123.21 43.2164 120.547 43.065 117.316C42.9893 114.169 40.1884 111.709 36.7819 111.709C33.2998 111.856 30.5746 114.52 30.5746 117.743ZM61.6858 117.743C61.8372 120.96 64.7138 123.49 68.196 123.343C71.6024 123.21 74.3276 120.547 74.1762 117.316C74.1005 114.169 71.2996 111.709 67.8932 111.709C64.411 111.856 61.6858 114.52 61.6858 117.743ZM92.7964 143.177C92.7964 146.401 95.5973 149.064 99.0794 149.134C102.637 149.134 105.514 146.471 105.514 143.177C105.514 139.89 102.637 137.227 99.0794 137.227H99.0037C95.5216 137.297 92.7207 139.953 92.7964 143.177ZM68.196 148.782C64.7138 148.929 61.8372 146.399 61.6858 143.175C61.6858 139.952 64.411 137.295 67.8932 137.148C71.2996 137.148 74.1005 139.608 74.1762 142.762C74.3276 145.986 71.6024 148.649 68.196 148.782ZM37.0095 148.782C33.5273 148.929 30.6508 146.399 30.4994 143.175C30.4994 139.952 33.2245 137.295 36.7067 137.148C40.1132 137.148 42.914 139.608 42.9897 142.762C43.1411 145.986 40.416 148.649 37.0095 148.782ZM99.0789 111.785C95.5968 111.855 92.8716 114.448 92.8716 117.672V117.742C92.9473 120.959 95.8239 123.412 99.306 123.342C102.712 123.279 105.438 120.616 105.362 117.392C105.211 114.301 102.485 111.785 99.0789 111.785Z" fill="#515151" fill-opacity="0.35"/>
<path d="M-0.887899 87.2275L-2.80296 87.1817C-2.8153 87.6976 -2.61901 88.1966 -2.25854 88.5658C-1.89806 88.935 -1.40389 89.1431 -0.887899 89.1431V87.2275ZM-0.837258 84.8526L1.07794 84.8921L-0.837258 84.8526ZM136.974 87.2275V89.1431C137.49 89.1431 137.985 88.935 138.345 88.5658C138.705 88.1966 138.902 87.6976 138.889 87.1818L136.974 87.2275ZM136.923 84.8247L135.008 84.864V84.864L136.923 84.8247ZM135.794 57.5104L133.934 57.9716C133.938 57.9874 133.942 58.003 133.947 58.0187L135.794 57.5104ZM109.894 44.9433L109.912 43.0278L109.894 44.9433ZM102.185 44.7886L102.261 42.8745C102.236 42.8735 102.21 42.873 102.185 42.873V44.7886ZM68.047 44.7887V42.8731H68.047L68.047 44.7887ZM33.9088 44.789L33.9088 42.8734L33.9088 44.789ZM27.8158 44.7368L27.841 42.8213L27.8158 44.7368ZM0.300504 57.5109L2.14954 58.0115C2.15344 57.9971 2.15717 57.9826 2.16073 57.9682L0.300504 57.5109ZM-0.913574 87.2288V85.3132C-1.97153 85.3132 -2.82918 86.1709 -2.82918 87.2288H-0.913574ZM30.6346 176.61L30.6628 178.526H30.6628L30.6346 176.61ZM104.657 176.588L104.679 174.672L104.657 176.588ZM137.002 87.2288H138.917C138.917 86.1709 138.06 85.3132 137.002 85.3132V87.2288ZM37.0847 123.343L37.0099 121.429L37.0038 121.429L37.0847 123.343ZM30.5746 117.743H28.659C28.659 117.774 28.6597 117.804 28.6611 117.834L30.5746 117.743ZM43.065 117.316L41.1499 117.362C41.1503 117.377 41.1508 117.391 41.1515 117.406L43.065 117.316ZM36.7819 111.709V109.794C36.755 109.794 36.728 109.794 36.701 109.795L36.7819 111.709ZM68.196 123.343L68.1211 121.429L68.1151 121.429L68.196 123.343ZM61.6858 117.743H59.7702C59.7702 117.774 59.771 117.804 59.7724 117.834L61.6858 117.743ZM74.1762 117.316L72.2612 117.362C72.2615 117.377 72.262 117.391 72.2627 117.406L74.1762 117.316ZM67.8932 111.709V109.794C67.8662 109.794 67.8392 109.794 67.8123 109.795L67.8932 111.709ZM99.0794 149.134L99.0409 151.049C99.0537 151.05 99.0666 151.05 99.0794 151.05V149.134ZM92.7964 143.177H94.712C94.712 143.162 94.7118 143.147 94.7115 143.132L92.7964 143.177ZM99.0037 137.227V135.312C98.9909 135.312 98.978 135.312 98.9652 135.312L99.0037 137.227ZM61.6858 143.175H59.7702C59.7702 143.205 59.7709 143.235 59.7724 143.265L61.6858 143.175ZM68.196 148.782L68.1211 146.868L68.1151 146.868L68.196 148.782ZM67.8932 137.148V135.233C67.8662 135.233 67.8392 135.233 67.8123 135.234L67.8932 137.148ZM74.1762 142.762L72.2612 142.808C72.2615 142.823 72.262 142.837 72.2627 142.852L74.1762 142.762ZM30.4994 143.175H28.5838C28.5838 143.205 28.5845 143.235 28.5859 143.265L30.4994 143.175ZM37.0095 148.782L36.9347 146.868L36.9286 146.868L37.0095 148.782ZM36.7067 137.148V135.233C36.6797 135.233 36.6528 135.233 36.6258 135.234L36.7067 137.148ZM42.9897 142.762L41.0747 142.808C41.075 142.823 41.0755 142.837 41.0762 142.852L42.9897 142.762ZM99.0789 111.785V109.87C99.0661 109.87 99.0532 109.87 99.0404 109.87L99.0789 111.785ZM92.8716 117.742H90.956C90.956 117.757 90.9562 117.772 90.9565 117.787L92.8716 117.742ZM99.306 123.342L99.2706 121.427L99.2675 121.427L99.306 123.342ZM105.362 117.392L107.277 117.347C107.277 117.331 107.276 117.314 107.275 117.298L105.362 117.392ZM1.02716 87.2733C1.03965 86.751 1.05658 85.9292 1.07794 84.8921L-2.75246 84.8132C-2.77389 85.8537 -2.79065 86.6674 -2.80296 87.1817L1.02716 87.2733ZM136.974 85.3119H-0.887899V89.1431H136.974V85.3119ZM135.008 84.864C135.03 85.9143 135.047 86.7462 135.059 87.2733L138.889 87.1818C138.877 86.6628 138.86 85.8391 138.839 84.7853L135.008 84.864ZM133.947 58.0187C133.946 58.0181 133.949 58.026 133.953 58.0443C133.957 58.0623 133.962 58.0869 133.968 58.119C133.98 58.184 133.994 58.2692 134.01 58.3769C134.04 58.5931 134.073 58.8716 134.106 59.2126C134.172 59.8942 134.235 60.7758 134.296 61.815C134.418 63.8908 134.525 66.538 134.619 69.3549C134.805 74.9858 134.934 81.2443 135.008 84.864L138.839 84.7854C138.764 81.1688 138.635 74.8868 138.448 69.228C138.354 66.4 138.245 63.715 138.121 61.5908C138.059 60.5299 137.992 59.5944 137.919 58.8443C137.852 58.1461 137.768 57.4639 137.641 57.0021L133.947 58.0187ZM109.875 46.8588C116.572 46.9238 121.913 46.9986 125.99 48.4499C127.965 49.153 129.579 50.163 130.871 51.6247C132.167 53.0925 133.226 55.1153 133.934 57.9716L137.653 57.0492C136.83 53.7328 135.531 51.1142 133.742 49.0883C131.947 47.0562 129.746 45.72 127.275 44.8405C122.459 43.1265 116.382 43.0905 109.912 43.0278L109.875 46.8588ZM102.11 46.7028C104.82 46.8099 107.424 46.835 109.875 46.8588L109.912 43.0278C107.454 43.0039 104.906 42.979 102.261 42.8745L102.11 46.7028ZM68.047 46.7043L102.185 46.7042V42.873L68.047 42.8731V46.7043ZM33.9089 46.7046L68.0471 46.7043L68.047 42.8731L33.9088 42.8734L33.9089 46.7046ZM27.7905 46.6522C29.7246 46.6777 31.7681 46.7047 33.9089 46.7046L33.9088 42.8734C31.7971 42.8735 29.7782 42.8469 27.841 42.8213L27.7905 46.6522ZM2.16073 57.9682C2.91545 54.8979 3.98952 52.7461 5.30225 51.2051C6.60214 49.679 8.22404 48.6481 10.2517 47.9506C14.4618 46.5024 20.1434 46.5514 27.7905 46.6522L27.841 42.8213C20.4572 42.724 13.9906 42.6129 9.0055 44.3277C6.43558 45.2117 4.19812 46.593 2.38572 48.7207C0.586149 50.8333 -0.705028 53.5767 -1.55972 57.0536L2.16073 57.9682ZM1.07794 84.8921C1.15219 81.2877 1.28094 75.0384 1.46862 69.4048C1.56251 66.5867 1.67075 63.9352 1.79354 61.8515C1.855 60.8084 1.9193 59.9218 1.98585 59.2342C2.05714 58.4977 2.11982 58.1213 2.14954 58.0115L-1.54854 57.0103C-1.67428 57.4747 -1.75912 58.1582 -1.82754 58.8651C-1.90069 59.6209 -1.96829 60.5612 -2.03104 61.6261C-2.15669 63.7584 -2.2662 66.4478 -2.36047 69.2773C-2.54909 74.9389 -2.67828 81.212 -2.75246 84.8132L1.07794 84.8921ZM1.00203 157.413V87.2288H-2.82918V157.413H1.00203ZM30.6064 174.695C25.7106 174.767 21.3842 174.83 17.6039 174.585C13.8173 174.341 10.741 173.795 8.31547 172.737C5.94755 171.704 4.18299 170.177 2.97181 167.861C1.73265 165.49 1.00203 162.156 1.00203 157.413H-2.82918C-2.82918 162.501 -2.05327 166.518 -0.423384 169.636C1.23447 172.807 3.70148 174.904 6.78361 176.249C9.80811 177.568 13.4003 178.153 17.3568 178.409C21.3196 178.665 25.8106 178.597 30.6628 178.526L30.6064 174.695ZM38.3718 174.62C35.6639 174.62 33.068 174.659 30.6064 174.695L30.6628 178.526C33.1279 178.489 35.6964 178.452 38.3718 178.452V174.62ZM97.6406 174.62H38.3718V178.452H97.6406V174.62ZM104.679 174.672C102.437 174.647 100.086 174.62 97.6406 174.62V178.452C100.061 178.452 102.391 178.478 104.636 178.503L104.679 174.672ZM135.086 157.164C135.086 161.937 134.344 165.294 133.08 167.685C131.844 170.022 130.039 171.572 127.604 172.624C125.113 173.702 121.952 174.262 118.061 174.52C114.176 174.779 109.724 174.73 104.679 174.672L104.636 178.503C109.638 178.56 114.252 178.613 118.315 178.343C122.372 178.074 126.042 177.474 129.125 176.141C132.265 174.783 134.778 172.67 136.467 169.475C138.128 166.333 138.917 162.286 138.917 157.164H135.086ZM135.086 87.2288V157.164H138.917V87.2288H135.086ZM-0.913574 89.1444H137.002V85.3132H-0.913574V89.1444ZM37.0038 121.429C34.4766 121.536 32.5854 119.721 32.4881 117.653L28.6611 117.834C28.8666 122.199 32.7286 125.445 37.1656 125.257L37.0038 121.429ZM41.1515 117.406C41.2458 119.419 39.5156 121.331 37.0099 121.429L37.1596 125.257C41.4668 125.089 45.1869 121.675 44.9785 117.226L41.1515 117.406ZM36.7819 113.625C39.3209 113.625 41.1032 115.419 41.1499 117.362L44.98 117.27C44.8753 112.919 41.0558 109.794 36.7819 109.794V113.625ZM32.4902 117.743C32.4902 115.666 34.2823 113.732 36.8628 113.623L36.701 109.795C32.3173 109.981 28.659 113.373 28.659 117.743H32.4902ZM68.1151 121.429C65.5878 121.536 63.6967 119.721 63.5993 117.653L59.7724 117.834C59.9778 122.199 63.8398 125.445 68.2769 125.257L68.1151 121.429ZM72.2627 117.406C72.357 119.419 70.6268 121.331 68.1211 121.429L68.2708 125.257C72.5781 125.089 76.2982 121.675 76.0897 117.226L72.2627 117.406ZM67.8932 113.625C70.4322 113.625 72.2144 115.419 72.2612 117.362L76.0913 117.27C75.9866 112.919 72.1671 109.794 67.8932 109.794V113.625ZM63.6015 117.743C63.6015 115.666 65.3935 113.732 67.9741 113.623L67.8123 109.795C63.4285 109.981 59.7702 113.373 59.7702 117.743H63.6015ZM99.118 147.219C96.5466 147.167 94.712 145.231 94.712 143.177H90.8808C90.8808 147.571 94.648 150.961 99.0409 151.049L99.118 147.219ZM103.598 143.177C103.598 145.277 101.721 147.219 99.0794 147.219V151.05C103.554 151.05 107.429 147.665 107.429 143.177H103.598ZM99.0794 139.143C101.723 139.143 103.598 141.086 103.598 143.177H107.429C107.429 138.695 103.552 135.312 99.0794 135.312V139.143ZM99.0037 139.143H99.0794V135.312H99.0037V139.143ZM94.7115 143.132C94.6644 141.126 96.4554 139.194 99.0423 139.142L98.9652 135.312C94.5877 135.4 90.777 138.78 90.8813 143.222L94.7115 143.132ZM59.7724 143.265C59.9777 147.637 63.8383 150.884 68.2769 150.696L68.1151 146.868C65.5893 146.975 63.6968 145.162 63.5993 143.086L59.7724 143.265ZM67.8123 135.234C63.4315 135.419 59.7702 138.803 59.7702 143.175H63.6015C63.6015 141.101 65.3906 139.171 67.9741 139.062L67.8123 135.234ZM76.0913 142.716C75.9867 138.359 72.1686 135.233 67.8932 135.233V139.064C70.4306 139.064 72.2143 140.857 72.2612 142.808L76.0913 142.716ZM68.2708 150.696C72.5764 150.528 76.2984 147.115 76.0897 142.672L72.2627 142.852C72.3568 144.856 70.6285 146.77 68.1211 146.868L68.2708 150.696ZM28.5859 143.265C28.7912 147.637 32.6519 150.884 37.0904 150.696L36.9286 146.868C34.4028 146.975 32.5104 145.162 32.4129 143.086L28.5859 143.265ZM36.6258 135.234C32.245 135.419 28.5838 138.803 28.5838 143.175H32.415C32.415 141.101 34.2041 139.171 36.7876 139.062L36.6258 135.234ZM44.9048 142.716C44.8002 138.359 40.9822 135.233 36.7067 135.233V139.064C39.2442 139.064 41.0278 140.857 41.0747 142.808L44.9048 142.716ZM37.0843 150.696C41.3899 150.528 45.1119 147.115 44.9032 142.672L41.0762 142.852C41.1704 144.856 39.442 146.77 36.9347 146.868L37.0843 150.696ZM94.7872 117.672C94.7872 115.618 96.5469 113.752 99.1175 113.701L99.0404 109.87C94.6467 109.959 90.956 113.279 90.956 117.672H94.7872ZM94.7872 117.742V117.672H90.956V117.742H94.7872ZM99.2675 121.427C96.6538 121.479 94.8334 119.682 94.7867 117.697L90.9565 117.787C91.0612 122.237 94.9939 125.345 99.3446 125.257L99.2675 121.427ZM103.447 117.437C103.495 119.49 101.728 121.381 99.2706 121.427L99.3415 125.257C103.697 125.177 107.38 121.741 107.277 117.347L103.447 117.437ZM99.0789 113.701C101.561 113.701 103.352 115.51 103.449 117.486L107.275 117.298C107.069 113.093 103.41 109.87 99.0789 109.87V113.701Z" fill="url(#paint1_linear_740_12840)" mask="url(#path-3-outside-1_740_12840)"/>
</g>
<g filter="url(#filter2_bd_740_12840)">
<mask id="path-5-inside-2_740_12840" fill="white">
<path fill-rule="evenodd" clip-rule="evenodd" d="M45.5615 63.139C45.5615 66.2297 43.0634 68.5354 39.7326 68.5354C36.4019 68.5354 33.9038 66.2297 33.9038 63.139V41.7706C33.9038 38.6799 36.4019 36.3672 39.7326 36.3672C43.0634 36.3672 45.5615 38.6799 45.5615 41.7706V63.139ZM102.183 63.139C102.183 66.2297 99.6095 68.5354 96.3545 68.5354C93.0237 68.5354 90.5256 66.2297 90.5256 63.139V41.7706C90.5256 38.6799 93.0237 36.3672 96.3545 36.3672C99.6095 36.3672 102.183 38.6799 102.183 41.7706V63.139Z"/>
</mask>
<path fill-rule="evenodd" clip-rule="evenodd" d="M45.5615 63.139C45.5615 66.2297 43.0634 68.5354 39.7326 68.5354C36.4019 68.5354 33.9038 66.2297 33.9038 63.139V41.7706C33.9038 38.6799 36.4019 36.3672 39.7326 36.3672C43.0634 36.3672 45.5615 38.6799 45.5615 41.7706V63.139ZM102.183 63.139C102.183 66.2297 99.6095 68.5354 96.3545 68.5354C93.0237 68.5354 90.5256 66.2297 90.5256 63.139V41.7706C90.5256 38.6799 93.0237 36.3672 96.3545 36.3672C99.6095 36.3672 102.183 38.6799 102.183 41.7706V63.139Z" fill="#BB1E1E"/>
<path d="M39.7326 69.3017C43.4292 69.3017 46.3277 66.7081 46.3277 63.139H44.7952C44.7952 65.7513 42.6976 67.7692 39.7326 67.7692V69.3017ZM33.1376 63.139C33.1376 66.7081 36.0361 69.3017 39.7326 69.3017V67.7692C36.7677 67.7692 34.6701 65.7513 34.6701 63.139H33.1376ZM33.1376 41.7706V63.139H34.6701V41.7706H33.1376ZM39.7326 35.6009C36.0347 35.6009 33.1376 38.2028 33.1376 41.7706H34.6701C34.6701 39.157 36.7691 37.1334 39.7326 37.1334V35.6009ZM46.3277 41.7706C46.3277 38.2028 43.4306 35.6009 39.7326 35.6009V37.1334C42.6962 37.1334 44.7952 39.157 44.7952 41.7706H46.3277ZM46.3277 63.139V41.7706H44.7952V63.139H46.3277ZM96.3545 69.3017C99.9686 69.3017 102.95 66.7143 102.95 63.139H101.417C101.417 65.7451 99.2505 67.7692 96.3545 67.7692V69.3017ZM89.7594 63.139C89.7594 66.7081 92.6579 69.3017 96.3545 69.3017V67.7692C93.3895 67.7692 91.2919 65.7513 91.2919 63.139H89.7594ZM89.7594 41.7706V63.139H91.2919V41.7706H89.7594ZM96.3545 35.6009C92.6565 35.6009 89.7594 38.2028 89.7594 41.7706H91.2919C91.2919 39.157 93.3909 37.1334 96.3545 37.1334V35.6009ZM102.95 41.7706C102.95 38.1966 99.9699 35.6009 96.3545 35.6009V37.1334C99.2491 37.1334 101.417 39.1633 101.417 41.7706H102.95ZM102.95 63.139V41.7706H101.417V63.139H102.95Z" fill="url(#paint2_linear_740_12840)" mask="url(#path-5-inside-2_740_12840)"/>
</g>
<g filter="url(#filter3_bd_740_12840)">
<mask id="path-7-inside-3_740_12840" fill="white">
<path fill-rule="evenodd" clip-rule="evenodd" d="M30.6443 117.807C30.7957 121.023 33.6723 123.553 37.1545 123.406C40.5609 123.273 43.2861 120.61 43.1347 117.379C43.059 114.232 40.2581 111.772 36.8517 111.772C33.3695 111.92 30.6443 114.583 30.6443 117.807ZM61.7541 117.807C61.9055 121.023 64.7821 123.553 68.2642 123.406C71.6707 123.273 74.3959 120.61 74.2445 117.379C74.1688 114.232 71.3679 111.772 67.9614 111.772C64.4793 111.92 61.7541 114.583 61.7541 117.807ZM92.8639 143.239C92.8639 146.463 95.6648 149.126 99.1469 149.196C102.705 149.196 105.581 146.533 105.581 143.239C105.581 139.952 102.705 137.289 99.1469 137.289H99.0713C95.5891 137.359 92.7882 140.015 92.8639 143.239ZM68.2642 148.847C64.7821 148.994 61.9055 146.464 61.7541 143.24C61.7541 140.016 64.4793 137.36 67.9614 137.213C71.3679 137.213 74.1688 139.673 74.2445 142.827C74.3959 146.05 71.6707 148.714 68.2642 148.847ZM37.077 148.847C33.5949 148.994 30.7183 146.464 30.5669 143.24C30.5669 140.016 33.2921 137.36 36.7742 137.213C40.1807 137.213 42.9815 139.673 43.0572 142.827C43.2086 146.05 40.4835 148.714 37.077 148.847ZM99.1465 111.848C95.6643 111.919 92.9391 114.512 92.9391 117.735V117.806C93.0148 121.022 95.8914 123.475 99.3736 123.405C102.78 123.342 105.505 120.679 105.429 117.455C105.278 114.364 102.553 111.848 99.1465 111.848Z"/>
</mask>
<path fill-rule="evenodd" clip-rule="evenodd" d="M30.6443 117.807C30.7957 121.023 33.6723 123.553 37.1545 123.406C40.5609 123.273 43.2861 120.61 43.1347 117.379C43.059 114.232 40.2581 111.772 36.8517 111.772C33.3695 111.92 30.6443 114.583 30.6443 117.807ZM61.7541 117.807C61.9055 121.023 64.7821 123.553 68.2642 123.406C71.6707 123.273 74.3959 120.61 74.2445 117.379C74.1688 114.232 71.3679 111.772 67.9614 111.772C64.4793 111.92 61.7541 114.583 61.7541 117.807ZM92.8639 143.239C92.8639 146.463 95.6648 149.126 99.1469 149.196C102.705 149.196 105.581 146.533 105.581 143.239C105.581 139.952 102.705 137.289 99.1469 137.289H99.0713C95.5891 137.359 92.7882 140.015 92.8639 143.239ZM68.2642 148.847C64.7821 148.994 61.9055 146.464 61.7541 143.24C61.7541 140.016 64.4793 137.36 67.9614 137.213C71.3679 137.213 74.1688 139.673 74.2445 142.827C74.3959 146.05 71.6707 148.714 68.2642 148.847ZM37.077 148.847C33.5949 148.994 30.7183 146.464 30.5669 143.24C30.5669 140.016 33.2921 137.36 36.7742 137.213C40.1807 137.213 42.9815 139.673 43.0572 142.827C43.2086 146.05 40.4835 148.714 37.077 148.847ZM99.1465 111.848C95.6643 111.919 92.9391 114.512 92.9391 117.735V117.806C93.0148 121.022 95.8914 123.475 99.3736 123.405C102.78 123.342 105.505 120.679 105.429 117.455C105.278 114.364 102.553 111.848 99.1465 111.848Z" fill="#BB1E1E"/>
<path d="M37.1545 123.406L37.1245 122.641L37.1221 122.641L37.1545 123.406ZM30.6443 117.807H29.8781V117.825L29.8789 117.843L30.6443 117.807ZM43.1347 117.379L42.3687 117.398L42.3689 117.406L42.3693 117.415L43.1347 117.379ZM36.8517 111.772V111.006H36.8355L36.8193 111.007L36.8517 111.772ZM68.2642 123.406L68.2343 122.641L68.2319 122.641L68.2642 123.406ZM61.7541 117.807H60.9879V117.825L60.9887 117.843L61.7541 117.807ZM74.2445 117.379L73.4784 117.398L73.4787 117.406L73.4791 117.415L74.2445 117.379ZM67.9614 111.772V111.006H67.9453L67.9291 111.007L67.9614 111.772ZM99.1469 149.196L99.1315 149.962L99.1392 149.962H99.1469V149.196ZM92.8639 143.239H93.6302V143.23L93.63 143.221L92.8639 143.239ZM99.0713 137.289V136.523H99.0635L99.0558 136.523L99.0713 137.289ZM61.7541 143.24H60.9879V143.258L60.9887 143.276L61.7541 143.24ZM68.2642 148.847L68.2343 148.081L68.2319 148.081L68.2642 148.847ZM67.9614 137.213V136.447H67.9453L67.9291 136.447L67.9614 137.213ZM74.2445 142.827L73.4784 142.845L73.4787 142.854L73.4791 142.862L74.2445 142.827ZM30.5669 143.24H29.8007V143.258L29.8015 143.276L30.5669 143.24ZM37.077 148.847L37.0471 148.081L37.0447 148.081L37.077 148.847ZM36.7742 137.213V136.447H36.758L36.7419 136.447L36.7742 137.213ZM43.0572 142.827L42.2912 142.845L42.2914 142.854L42.2918 142.862L43.0572 142.827ZM99.1465 111.848V111.082H99.1387L99.131 111.082L99.1465 111.848ZM92.9391 117.806H92.1729V117.815L92.1731 117.824L92.9391 117.806ZM99.3736 123.405L99.3594 122.639L99.3581 122.639L99.3736 123.405ZM105.429 117.455L106.196 117.437L106.195 117.427L106.195 117.418L105.429 117.455ZM37.1221 122.641C34.0219 122.772 31.5395 120.528 31.4097 117.771L29.8789 117.843C30.052 121.519 33.3227 124.335 37.1868 124.172L37.1221 122.641ZM42.3693 117.415C42.4979 120.159 40.1707 122.522 37.1245 122.641L37.1844 124.172C40.9512 124.025 44.0743 121.061 43.9001 117.343L42.3693 117.415ZM36.8517 112.539C39.9111 112.539 42.3046 114.732 42.3687 117.398L43.9007 117.361C43.8134 113.732 40.6051 111.006 36.8517 111.006V112.539ZM31.4106 117.807C31.4106 115.041 33.7625 112.67 36.884 112.538L36.8193 111.007C32.9765 111.169 29.8781 114.124 29.8781 117.807H31.4106ZM68.2319 122.641C65.1317 122.772 62.6493 120.528 62.5195 117.771L60.9887 117.843C61.1617 121.519 64.4325 124.335 68.2966 124.172L68.2319 122.641ZM73.4791 117.415C73.6076 120.159 71.2804 122.522 68.2343 122.641L68.2942 124.172C72.0609 124.025 75.1841 121.061 75.0099 117.343L73.4791 117.415ZM67.9614 112.539C71.0209 112.539 73.4143 114.732 73.4784 117.398L75.0105 117.361C74.9232 113.732 71.7149 111.006 67.9614 111.006V112.539ZM62.5204 117.807C62.5204 115.041 64.8723 112.67 67.9938 112.538L67.9291 111.007C64.0863 111.169 60.9879 114.124 60.9879 117.807H62.5204ZM99.1624 148.43C96.0445 148.367 93.6302 145.995 93.6302 143.239H92.0977C92.0977 146.931 95.2851 149.885 99.1315 149.962L99.1624 148.43ZM104.815 143.239C104.815 146.055 102.338 148.43 99.1469 148.43V149.962C103.071 149.962 106.348 147.011 106.348 143.239H104.815ZM99.1469 138.055C102.339 138.055 104.815 140.43 104.815 143.239H106.348C106.348 139.474 103.071 136.523 99.1469 136.523V138.055ZM99.0713 138.055H99.1469V136.523H99.0713V138.055ZM93.63 143.221C93.5657 140.484 95.9626 138.118 99.0867 138.055L99.0558 136.523C95.2156 136.6 92.0108 139.546 92.0979 143.257L93.63 143.221ZM60.9887 143.276C61.1617 146.959 64.4319 149.776 68.2966 149.612L68.2319 148.081C65.1323 148.212 62.6493 145.969 62.5195 143.204L60.9887 143.276ZM67.9291 136.447C64.0875 136.61 60.9879 139.557 60.9879 143.24H62.5204C62.5204 140.476 64.8711 138.11 67.9938 137.978L67.9291 136.447ZM75.0105 142.808C74.9232 139.173 71.7155 136.447 67.9614 136.447V137.979C71.0203 137.979 73.4143 140.172 73.4784 142.845L75.0105 142.808ZM68.2942 149.612C72.0603 149.465 75.1842 146.502 75.0099 142.791L73.4791 142.862C73.6076 145.599 71.2811 147.962 68.2343 148.081L68.2942 149.612ZM29.8015 143.276C29.9745 146.959 33.2447 149.776 37.1094 149.612L37.0447 148.081C33.945 148.212 31.4621 145.969 31.3323 143.204L29.8015 143.276ZM36.7419 136.447C32.9002 136.61 29.8007 139.557 29.8007 143.24H31.3331C31.3331 140.476 33.6839 138.11 36.8066 137.978L36.7419 136.447ZM43.8233 142.808C43.736 139.173 40.5283 136.447 36.7742 136.447V137.979C39.8331 137.979 42.2271 140.172 42.2912 142.845L43.8233 142.808ZM37.1069 149.612C40.8731 149.465 43.997 146.502 43.8226 142.791L42.2918 142.862C42.4203 145.599 40.0939 147.962 37.0471 148.081L37.1069 149.612ZM93.7054 117.735C93.7054 114.979 96.0443 112.677 99.1619 112.615L99.131 111.082C95.2843 111.16 92.1729 114.044 92.1729 117.735H93.7054ZM93.7054 117.806V117.735H92.1729V117.806H93.7054ZM99.3581 122.639C96.2234 122.702 93.7693 120.511 93.7052 117.787L92.1731 117.824C92.2604 121.533 95.5594 124.248 99.389 124.171L99.3581 122.639ZM104.663 117.473C104.728 120.229 102.386 122.583 99.3594 122.639L99.3877 124.171C103.174 124.101 106.282 121.129 106.196 117.437L104.663 117.473ZM99.1465 112.615C102.183 112.615 104.535 114.848 104.664 117.493L106.195 117.418C106.022 113.881 102.923 111.082 99.1465 111.082V112.615Z" fill="url(#paint3_linear_740_12840)" mask="url(#path-7-inside-3_740_12840)"/>
</g>
<g opacity="0.5" filter="url(#filter4_b_740_12840)">
<path d="M6.12196 87.7551C6.12196 90.7323 8.64275 93.0863 12.0217 93.0863L121.243 93.0863C124.621 93.0863 127.15 90.7323 127.15 87.7551C127.15 84.7087 124.621 82.4238 121.243 82.4238L12.0217 82.4238C8.64275 82.4238 6.12196 84.7087 6.12196 87.7551Z" fill="url(#paint4_linear_740_12840)" fill-opacity="0.5"/>
</g>
<defs>
<filter id="filter0_f_740_12840" x="-39.957" y="17.7188" width="135.47" height="133.549" filterUnits="userSpaceOnUse" color-interpolation-filters="sRGB">
<feFlood flood-opacity="0" result="BackgroundImageFix"/>
<feBlend mode="normal" in="SourceGraphic" in2="BackgroundImageFix" result="shape"/>
<feGaussianBlur stdDeviation="12.1284" result="effect1_foregroundBlur_740_12840"/>
</filter>
<filter id="filter1_b_740_12840" x="-48.8036" y="-3.20013" width="233.696" height="227.765" filterUnits="userSpaceOnUse" color-interpolation-filters="sRGB">
<feFlood flood-opacity="0" result="BackgroundImageFix"/>
<feGaussianBlur in="BackgroundImageFix" stdDeviation="22.9873"/>
<feComposite in2="SourceAlpha" operator="in" result="effect1_backgroundBlur_740_12840"/>
<feBlend mode="normal" in="SourceGraphic" in2="effect1_backgroundBlur_740_12840" result="shape"/>
</filter>
<filter id="filter2_bd_740_12840" x="5.16972" y="7.6331" width="125.747" height="89.6361" filterUnits="userSpaceOnUse" color-interpolation-filters="sRGB">
<feFlood flood-opacity="0" result="BackgroundImageFix"/>
<feGaussianBlur in="BackgroundImageFix" stdDeviation="14.367"/>
<feComposite in2="SourceAlpha" operator="in" result="effect1_backgroundBlur_740_12840"/>
<feColorMatrix in="SourceAlpha" type="matrix" values="0 0 0 0 0 0 0 0 0 0 0 0 0 0 0 0 0 0 127 0" result="hardAlpha"/>
<feOffset dx="9.57803" dy="9.57803"/>
<feGaussianBlur stdDeviation="9.57803"/>
<feColorMatrix type="matrix" values="0 0 0 0 0.54902 0 0 0 0 0.54902 0 0 0 0 0.54902 0 0 0 0.2 0"/>
<feBlend mode="normal" in2="effect1_backgroundBlur_740_12840" result="effect2_dropShadow_740_12840"/>
<feBlend mode="normal" in="SourceGraphic" in2="effect2_dropShadow_740_12840" result="shape"/>
</filter>
<filter id="filter3_bd_740_12840" x="1.83281" y="83.0384" width="132.483" height="94.892" filterUnits="userSpaceOnUse" color-interpolation-filters="sRGB">
<feFlood flood-opacity="0" result="BackgroundImageFix"/>
<feGaussianBlur in="BackgroundImageFix" stdDeviation="14.367"/>
<feComposite in2="SourceAlpha" operator="in" result="effect1_backgroundBlur_740_12840"/>
<feColorMatrix in="SourceAlpha" type="matrix" values="0 0 0 0 0 0 0 0 0 0 0 0 0 0 0 0 0 0 127 0" result="hardAlpha"/>
<feOffset dx="9.57803" dy="9.57803"/>
<feGaussianBlur stdDeviation="9.57803"/>
<feColorMatrix type="matrix" values="0 0 0 0 0.55 0 0 0 0 0.55 0 0 0 0 0.55 0 0 0 0.5 0"/>
<feBlend mode="normal" in2="effect1_backgroundBlur_740_12840" result="effect2_dropShadow_740_12840"/>
<feBlend mode="normal" in="SourceGraphic" in2="effect2_dropShadow_740_12840" result="shape"/>
</filter>
<filter id="filter4_b_740_12840" x="-22.612" y="53.6897" width="178.496" height="68.1303" filterUnits="userSpaceOnUse" color-interpolation-filters="sRGB">
<feFlood flood-opacity="0" result="BackgroundImageFix"/>
<feGaussianBlur in="BackgroundImageFix" stdDeviation="14.367"/>
<feComposite in2="SourceAlpha" operator="in" result="effect1_backgroundBlur_740_12840"/>
<feBlend mode="normal" in="SourceGraphic" in2="effect1_backgroundBlur_740_12840" result="shape"/>
</filter>
<linearGradient id="paint0_linear_740_12840" x1="38.2851" y1="89.8797" x2="-51.1299" y2="166.75" gradientUnits="userSpaceOnUse">
<stop stop-color="#252525"/>
<stop offset="1" stop-color="#212121"/>
</linearGradient>
<linearGradient id="paint1_linear_740_12840" x1="21.0403" y1="60.0677" x2="104.379" y2="167.924" gradientUnits="userSpaceOnUse">
<stop stop-color="#8D8D8D" stop-opacity="0.25"/>
<stop offset="1" stop-color="white" stop-opacity="0"/>
</linearGradient>
<linearGradient id="paint2_linear_740_12840" x1="96.1903" y1="41.2312" x2="123.3" y2="52.3478" gradientUnits="userSpaceOnUse">
<stop stop-opacity="0.25"/>
<stop offset="1" stop-color="white" stop-opacity="0"/>
</linearGradient>
<linearGradient id="paint3_linear_740_12840" x1="42.508" y1="116.132" x2="59.435" y2="158.155" gradientUnits="userSpaceOnUse">
<stop stop-color="#8D8D8D" stop-opacity="0.25"/>
<stop offset="1" stop-color="white" stop-opacity="0"/>
</linearGradient>
<linearGradient id="paint4_linear_740_12840" x1="38.7878" y1="87.6047" x2="35.1015" y2="74.9819" gradientUnits="userSpaceOnUse">
<stop/>
<stop offset="1" stop-opacity="0.2"/>
</linearGradient>
</defs>
</svg>
